<?xml version="1.0" encoding="UTF-8" standalone="no"?>
<!DOCTYPE svg PUBLIC "-//W3C//DTD SVG 1.1//EN" "http://www.w3.org/Graphics/SVG/1.1/DTD/svg11.dtd">
<svg xmlns="http://www.w3.org/2000/svg" xmlns:xlink="http://www.w3.org/1999/xlink" version="1.1" width="113.386pt" height="107.742pt" viewBox="0 0 113.386 107.742">
<g enable-background="new">
<g id="Layer-1" data-name="LOGO">
<clipPath id="cp0">
<path transform="matrix(1,0,0,-1,0,107.742)" d="M 0 107.742 L 113.386 107.742 L 113.386 0 L 0 0 Z "/>
</clipPath>
<g clip-path="url(#cp0)">
<path transform="matrix(1,0,0,-1,14.3838,44.123399)" d="M 0 0 L 2.351 0 L 2.351 4.128 C 2.351 5.097 2.37 6.025 2.785 6.796 C 3.2 7.527 3.892 7.941 4.603 7.941 C 5.433 7.941 5.946 7.427 6.124 6.775 C 6.203 6.48 6.203 6.222 6.203 5.511 L 6.203 0 L 8.554 0 L 8.554 4.642 C 8.554 5.492 8.613 6.282 9.067 7.013 C 9.383 7.527 9.995 7.941 10.746 7.941 C 12.544 7.941 12.406 6.38 12.406 5.452 L 12.406 0 L 14.757 0 L 14.757 6.222 C 14.757 7.25 14.776 8.297 13.986 9.166 C 13.314 9.897 12.366 10.173 11.378 10.173 C 9.64 10.173 8.613 9.205 8.218 8.652 C 7.566 9.818 6.4 10.173 5.472 10.173 C 4.544 10.173 3.141 9.759 2.351 8.771 L 2.351 9.877 L 0 9.877 Z M 23.784 3.378 C 23.488 2.963 22.836 2.015 21.216 2.015 C 19.656 2.015 18.687 2.904 18.411 4.464 L 25.72 4.464 C 25.7 5.452 25.522 7.171 24.713 8.316 C 24.515 8.613 23.428 10.173 20.821 10.173 C 18.035 10.173 15.902 8.297 15.902 4.978 C 15.902 1.343 18.391 -.296 20.979 -.296 C 22.994 -.296 24.574 .573 25.799 2.213 Z M 18.49 6.203 C 18.766 7.546 19.636 8.277 20.9 8.277 C 21.947 8.277 22.895 7.744 23.113 6.203 Z M 26.806 0 L 29.157 0 L 29.157 4.128 C 29.157 5.097 29.176 6.025 29.592 6.796 C 30.006 7.527 30.698 7.941 31.409 7.941 C 32.239 7.941 32.752 7.427 32.93 6.775 C 33.009 6.48 33.009 6.222 33.009 5.511 L 33.009 0 L 35.36 0 L 35.36 4.642 C 35.36 5.492 35.419 6.282 35.874 7.013 C 36.19 7.527 36.802 7.941 37.553 7.941 C 39.35 7.941 39.212 6.38 39.212 5.452 L 39.212 0 L 41.563 0 L 41.563 6.222 C 41.563 7.25 41.583 8.297 40.792 9.166 C 40.12 9.897 39.173 10.173 38.185 10.173 C 36.446 10.173 35.419 9.205 35.024 8.652 C 34.372 9.818 33.207 10.173 32.278 10.173 C 31.35 10.173 29.947 9.759 29.157 8.771 L 29.157 9.877 L 26.806 9.877 Z M 52.882 4.978 C 52.862 8.257 50.511 10.173 47.765 10.173 C 44.822 10.173 42.728 8.001 42.728 4.978 C 42.728 1.956 44.783 -.296 47.864 -.296 C 50.847 -.296 52.882 1.896 52.882 4.978 M 50.393 5.017 C 50.452 3.378 49.583 1.877 47.864 1.877 C 46.442 1.877 45.197 3.003 45.197 5.038 C 45.197 6.855 46.264 8.04 47.746 8.04 C 49.405 8.04 50.353 6.657 50.393 5.017 M 54.027 9.877 L 54.027 0 L 56.319 0 L 56.319 3.655 C 56.319 5.294 56.339 6.302 57.346 7.072 C 58.077 7.625 58.966 7.645 59.479 7.665 L 59.479 10.095 C 57.267 10.154 56.615 8.988 56.319 8.474 L 56.319 9.877 Z M 60.645 11.418 L 62.996004 11.418 L 62.996004 13.808001 L 60.645 13.808001 Z M 60.645 0 L 62.996004 0 L 62.996004 9.877 L 60.645 9.877 Z M 72.063 3.378 C 71.767 2.963 71.114 2.015 69.495 2.015 C 67.934 2.015 66.966 2.904 66.69 4.464 L 73.999 4.464 C 73.979 5.452 73.802 7.171 72.991 8.316 C 72.794 8.613 71.707 10.173 69.1 10.173 C 66.314 10.173 64.181 8.297 64.181 4.978 C 64.181 1.343 66.67 -.296 69.258 -.296 C 71.273 -.296 72.853 .573 74.077 2.213 Z M 66.769 6.203 C 67.045 7.546 67.915 8.277 69.179 8.277 C 70.226 8.277 71.174 7.744 71.391 6.203 Z M 74.651 1.462 C 75.895 .257 77.634 -.296 79.392 -.296 C 82.453 -.296 83.836 1.541 83.836 3.081 C 83.836 3.911 83.441 4.702 82.829 5.176 C 82.197 5.669 81.624 5.768 79.57 6.144 C 78.305 6.361 77.574 6.558 77.574 7.27 C 77.574 7.783 78.088 8.277 79.214 8.277 C 80.952 8.277 81.624 7.309 81.9 6.775 L 83.58 8.337 C 83.382 8.573 83.066 8.909 82.572 9.226 C 81.9 9.699 80.814 10.173 79.313 10.173 C 76.606 10.173 75.085 8.633 75.085 6.953 C 75.085 6.064 75.52 4.702 77.87 4.148 C 78.226 4.05 79.846 3.753 80.182 3.675 C 80.498 3.615 81.209 3.457 81.209 2.825 C 81.209 2.331 80.617 1.659 79.253 1.659 C 77.89 1.659 77.001 2.193 76.409 2.923 Z " fill="#00a0da"/>
<path transform="matrix(1,0,0,-1,14.3838,28.5654)" d="M 0 0 L 2.351 0 L 2.351 4.128 C 2.351 5.097 2.37 6.025 2.785 6.796 C 3.2 7.527 3.892 7.941 4.603 7.941 C 5.433 7.941 5.946 7.427 6.124 6.775 C 6.203 6.48 6.203 6.222 6.203 5.511 L 6.203 0 L 8.554 0 L 8.554 4.642 C 8.554 5.492 8.613 6.282 9.067 7.013 C 9.383 7.527 9.995 7.941 10.746 7.941 C 12.544 7.941 12.406 6.38 12.406 5.452 L 12.406 0 L 14.757 0 L 14.757 6.222 C 14.757 7.25 14.776 8.297 13.986 9.166 C 13.314 9.897 12.366 10.173 11.378 10.173 C 9.64 10.173 8.613 9.205 8.218 8.652 C 7.566 9.818 6.4 10.173 5.472 10.173 C 4.544 10.173 3.141 9.759 2.351 8.771 L 2.351 9.877 L 0 9.877 Z M 18.628 6.835 C 18.628 7.111 18.609 7.388 18.865 7.704 C 19.102 8.02 19.636 8.337 20.623 8.337 C 22.263 8.337 22.303 7.329 22.303 6.835 C 21.433 6.558 21.275 6.519 19.24 6.104 C 18.292 5.926 16.771 5.61 16.06 4.188 C 15.863 3.793 15.744 3.339 15.744 2.845 C 15.744 1.146 17.088 -.237 19.32 -.237 C 20.683 -.237 21.73 .336 22.243 .77 C 22.243 .632 22.283 .237 22.303 0 L 25.108 0 C 24.673 .593 24.673 .849 24.673 1.6 L 24.673 6.835 C 24.673 7.902 24.653 8.83 23.488 9.541 C 22.619 10.055 21.473 10.173 20.524 10.173 C 19.892 10.173 17.542 10.173 16.594 8.455 C 16.277 7.882 16.238 7.467 16.199 6.974 Z M 22.303 3.832 C 22.303 3.536 22.303 3.24 22.164 2.944 C 21.907 2.351 21.058 1.798 19.853 1.798 C 18.905 1.798 18.253 2.193 18.253 2.963 C 18.253 4.01 19.379 4.208 20.228 4.326 C 21.295 4.504 21.828 4.681 22.303 4.919 Z M 33.068 9.877 L 33.068 8.85 C 32.792 9.205 32.041 10.173 30.263 10.173 C 28.446 10.173 25.819 8.968 25.819 5.294 C 25.819 2.153 27.774 .573 30.105 .573 C 31.528 .573 32.555 1.165 33.068 1.64 C 33.068 .435 33.068 -.138 32.713 -.632 C 32.495 -.948 31.962 -1.422 30.757 -1.422 C 29.335 -1.422 28.92 -.771 28.742 -.197 L 26.135 -.197 C 26.471 -1.778 27.162 -3.299 30.678 -3.299 C 33.009 -3.299 34.234 -2.529 34.787 -1.798 C 35.399 -.968 35.399 -.178 35.419 1.778 L 35.419 9.877 Z M 33.128 5.255 C 33.108 3.437 31.962 2.745 30.698 2.745 C 29.295 2.745 28.248 3.635 28.248 5.353 C 28.248 7.25 29.473 8.06 30.678 8.06 C 32.278 8.06 33.147 6.855 33.128 5.255 M 37.157 11.418 L 39.508005 11.418 L 39.508005 13.808001 L 37.157 13.808001 Z M 37.157 0 L 39.508005 0 L 39.508005 9.877 L 37.157 9.877 Z M 49.741 7.368 C 49.227 8.514 47.963 10.173 45.474 10.173 C 42.669 10.173 40.496 7.961 40.496 4.939 C 40.496 1.817 42.649 -.296 45.395 -.296 C 47.113 -.296 49.069 .652 49.84 2.785 L 47.805 3.852 C 47.509 3.062 46.935 1.916 45.434 1.916 C 43.874 1.916 42.945 3.22 42.945 4.998 C 42.945 6.974 44.032 8.06 45.395 8.06 C 46.758 8.06 47.449 7.033 47.627 6.38 Z " fill="#00a0da"/>
<path transform="matrix(1,0,0,-1,98.2559,51.048597)" d="M 0 0 L -9.603 0 C -9.603 -17.857 -24.079 -32.333 -41.936 -32.333 C -59.793 -32.333 -74.269 -17.857 -74.269 0 L -83.872 0 C -83.872 -23.161 -65.097 -41.936 -41.936 -41.936 C -18.776 -41.936 0 -23.161 0 0 " fill="#00a0da"/>
</g>
<g id="Layer-1" data-name="CLEAR_SPACE">
</g>
</g>
</g>
</svg>
